<svg width="25" height="24" viewBox="0 0 25 24" fill="none" xmlns="http://www.w3.org/2000/svg">
<path d="M4.99023 8.57812C4.38086 8.01562 4.38086 7.03125 4.99023 6.46875L10.9902 0.46875C11.2715 0.1875 11.6465 0 12.0684 0C12.4434 0 12.8184 0.1875 13.0996 0.46875L19.0996 6.46875C19.709 7.03125 19.709 8.01562 19.0996 8.57812C18.5371 9.1875 17.5527 9.1875 16.9902 8.57812L13.5684 5.15625V16.5C13.5684 17.3438 12.8652 18 12.0684 18C11.2246 18 10.5684 17.3438 10.5684 16.5V5.15625L7.09961 8.57812C6.53711 9.1875 5.55273 9.1875 4.99023 8.57812ZM22.5684 16.5C23.3652 16.5 24.0684 17.2031 24.0684 18V22.5C24.0684 23.3438 23.3652 24 22.5684 24H1.56836C0.724609 24 0.0683594 23.3438 0.0683594 22.5V18C0.0683594 17.2031 0.724609 16.5 1.56836 16.5H9.06836C9.06836 18.1875 10.3809 19.5 12.0684 19.5C13.709 19.5 15.0684 18.1875 15.0684 16.5H22.5684ZM20.3184 21.375C20.9277 21.375 21.4434 20.9062 21.4434 20.25C21.4434 19.6406 20.9277 19.125 20.3184 19.125C19.6621 19.125 19.1934 19.6406 19.1934 20.25C19.1934 20.9062 19.6621 21.375 20.3184 21.375Z" fill="#2F4157"/>
</svg>
